<?xml version="1.0" standalone="no"?>
<!DOCTYPE svg PUBLIC "-//W3C//DTD SVG 20010904//EN"
 "http://www.w3.org/TR/2001/REC-SVG-20010904/DTD/svg10.dtd">
<svg version="1.0" xmlns="http://www.w3.org/2000/svg"
 width="360.000000pt" height="360.000000pt" viewBox="0 0 360.000000 360.000000"
 preserveAspectRatio="xMidYMid meet">
<metadata>
Created by potrace 1.11, written by Peter Selinger 2001-2013
</metadata>
<g transform="translate(0.000000,360.000000) scale(0.100000,-0.100000)"
fill="#000000" stroke="none">
<path d="M3105 3480 c-3 -5 -1 -10 4 -10 6 0 11 5 11 10 0 6 -2 10 -4 10 -3 0
-8 -4 -11 -10z"/>
<path d="M3378 3476 c-25 -19 -22 -26 11 -26 20 0 30 6 34 20 6 24 -18 27 -45
6z"/>
<path d="M3470 3480 c0 -5 11 -12 25 -16 13 -3 30 -13 37 -22 12 -13 6 -15
-55 -10 -66 6 -67 5 -61 -16 3 -11 9 -24 13 -28 11 -12 105 -12 129 1 12 6 26
10 31 7 4 -3 8 13 9 35 2 34 -2 41 -24 49 -33 13 -104 13 -104 0z m33 -77
c-13 -2 -33 -2 -45 0 -13 2 -3 4 22 4 25 0 35 -2 23 -4z"/>
<path d="M2919 3458 c-7 -11 -20 -26 -26 -33 -7 -8 -17 -25 -23 -39 -8 -21 -7
-26 6 -26 8 0 13 4 9 9 -3 6 9 30 27 55 17 25 29 48 27 51 -3 2 -12 -5 -20
-17z"/>
<path d="M2826 3424 c-9 -24 -2 -26 12 -4 7 11 8 20 3 20 -5 0 -12 -7 -15 -16z"/>
<path d="M3351 3413 c0 -25 1 -26 9 -8 12 27 12 35 0 35 -5 0 -10 -12 -9 -27z"/>
<path d="M3098 3398 c17 -8 26 -8 34 0 9 9 4 12 -22 11 -33 0 -34 -1 -12 -11z"/>
<path d="M3295 3370 c-3 -5 1 -10 10 -10 9 0 13 5 10 10 -3 6 -8 10 -10 10 -2
0 -7 -4 -10 -10z"/>
<path d="M3578 3363 c7 -3 16 -2 19 1 4 3 -2 6 -13 5 -11 0 -14 -3 -6 -6z"/>
<path d="M3433 3346 c10 -11 30 -13 75 -9 82 8 69 23 -19 23 -61 0 -68 -2 -56
-14z"/>
<path d="M3386 3091 c-3 -4 1 -16 8 -26 16 -23 46 -13 46 15 0 15 -7 20 -24
20 -14 0 -27 -4 -30 -9z"/>
<path d="M3505 3090 c3 -5 8 -10 11 -10 2 0 4 5 4 10 0 6 -5 10 -11 10 -5 0
-7 -4 -4 -10z"/>
<path d="M3550 3085 c6 -8 9 -18 6 -24 -4 -5 -1 -11 6 -14 7 -2 3 -2 -10 0
-13 2 -29 -3 -38 -11 -11 -11 -30 -13 -83 -9 -62 5 -70 4 -89 -17 -20 -22 -20
-24 -4 -36 16 -12 16 -13 -3 -15 -11 -1 -27 -3 -35 -4 -8 -1 -35 -3 -60 -5
-69 -4 123 -23 250 -24 l105 -1 3 31 c3 27 -1 33 -22 38 -33 8 -34 26 -1 26
19 0 25 5 25 21 0 32 -19 59 -42 59 -17 0 -18 -3 -8 -15z m-40 -85 c12 -8 9
-10 -12 -10 -15 0 -30 5 -33 10 -8 13 25 13 45 0z m-123 -36 c-3 -3 -12 -4
-19 -1 -8 3 -5 6 6 6 11 1 17 -2 13 -5z m110 0 c-3 -3 -12 -4 -19 -1 -8 3 -5
6 6 6 11 1 17 -2 13 -5z m50 0 c-3 -3 -12 -4 -19 -1 -8 3 -5 6 6 6 11 1 17 -2
13 -5z m-70 -20 c-3 -3 -12 -4 -19 -1 -8 3 -5 6 6 6 11 1 17 -2 13 -5z"/>
<path d="M3455 3060 c3 -5 13 -10 21 -10 8 0 12 5 9 10 -3 6 -13 10 -21 10 -8
0 -12 -4 -9 -10z"/>
<path d="M2716 3051 c-3 -4 6 -6 19 -3 14 2 25 6 25 8 0 8 -39 4 -44 -5z"/>
<path d="M3258 3043 c6 -2 18 -2 25 0 6 3 1 5 -13 5 -14 0 -19 -2 -12 -5z"/>
<path d="M2665 3009 c-9 -14 -2 -20 14 -10 8 6 9 11 3 15 -6 3 -14 1 -17 -5z"/>
<path d="M3040 3000 c0 -5 4 -10 9 -10 6 0 13 5 16 10 3 6 -1 10 -9 10 -9 0
-16 -4 -16 -10z"/>
<path d="M3200 2982 c0 -6 -13 -13 -30 -17 -38 -8 -39 -25 -2 -25 18 0 23 3
14 9 -18 11 33 21 71 14 16 -3 27 -1 27 6 0 6 -11 11 -24 11 -13 0 -31 3 -40
6 -9 3 -16 2 -16 -4z"/>
<path d="M1770 2873 c-14 -10 -37 -29 -51 -44 -14 -15 -49 -33 -78 -42 -51
-15 -52 -15 -82 10 -27 23 -33 24 -57 13 -53 -24 -146 -52 -176 -52 -17 0 -55
5 -85 10 -30 5 -72 5 -95 0 -23 -4 -72 -11 -111 -14 -70 -5 -129 -29 -167 -66
-10 -10 -24 -18 -32 -18 -24 0 -29 -20 -10 -35 18 -13 18 -14 -1 -21 -11 -4
-24 -13 -28 -21 -4 -7 -16 -13 -26 -13 -10 0 -21 -3 -25 -7 -9 -9 -17 -10
-140 -18 -74 -5 -92 -3 -107 11 -12 11 -19 13 -19 5 0 -8 -7 -7 -23 3 -34 21
-77 28 -93 15 -8 -6 -14 -14 -14 -18 0 -3 36 -37 79 -75 78 -68 98 -101 81
-135 -4 -9 -14 -28 -21 -44 -7 -15 -23 -30 -35 -33 -12 -3 -25 -12 -28 -21 -7
-17 -39 -10 -75 18 -13 11 -34 19 -47 19 -21 0 -22 -2 -11 -28 7 -15 22 -40
34 -56 23 -29 50 -29 83 0 20 17 79 10 95 -12 11 -16 15 -16 53 1 46 20 46 35
1 35 -27 0 -29 3 -29 35 0 38 19 63 64 83 22 10 32 10 42 1 11 -9 22 -8 49 7
19 10 35 21 35 24 0 4 18 5 40 4 32 -2 40 1 40 16 0 15 5 16 45 7 24 -6 42
-14 39 -19 -3 -4 2 -8 10 -8 20 0 31 -20 16 -30 -9 -5 -4 -12 16 -21 16 -8 30
-23 32 -34 2 -11 6 -27 9 -35 3 -8 5 -22 4 -31 -1 -10 12 -27 29 -39 31 -22
33 -30 15 -72 -6 -14 1 -16 51 -16 31 0 69 7 83 14 30 16 67 18 75 5 4 -5 0
-12 -6 -15 -7 -3 0 -3 15 1 18 3 40 -1 60 -12 26 -13 38 -14 61 -6 23 9 26 14
16 26 -9 11 -5 14 27 17 26 2 37 7 35 17 -2 9 3 11 13 7 18 -6 45 14 46 36 2
47 78 113 102 89 18 -18 40 -13 34 8 -3 13 3 23 19 31 19 11 25 10 40 -4 10
-11 25 -15 38 -12 12 3 25 6 29 6 5 0 6 4 3 9 -3 5 -15 7 -25 4 -20 -5 -37 12
-22 22 6 3 8 12 5 20 -4 11 0 12 23 6 17 -5 27 -14 25 -23 -2 -11 10 -17 38
-22 23 -3 38 -11 35 -16 -3 -5 0 -8 7 -5 8 3 18 -7 26 -23 14 -34 34 -54 81
-85 40 -25 75 -82 68 -109 -3 -10 -2 -18 2 -18 5 0 7 -20 6 -45 0 -25 0 -45 2
-45 6 0 68 72 80 94 17 29 16 39 -8 65 -11 12 -18 28 -15 36 3 8 -6 27 -19 41
-25 27 -34 77 -16 89 6 3 6 18 1 37 -5 17 -7 34 -4 39 2 4 -5 13 -16 19 -12 6
-19 18 -16 25 2 7 -5 21 -16 32 -18 16 -19 25 -13 77 3 33 11 68 16 77 14 27
-6 151 -27 166 -21 15 -38 17 -29 3 3 -5 9 -70 14 -144 8 -134 0 -222 -24
-245 -14 -13 -49 -18 -50 -6 -1 6 -10 27 -20 47 -15 31 -17 45 -9 81 15 63 11
69 -49 61 -65 -8 -107 -29 -107 -53 0 -10 -7 -25 -16 -32 -14 -11 -19 -9 -35
11 -10 14 -19 41 -19 63 0 26 -4 37 -15 37 -17 0 -18 4 -6 28 5 9 15 33 24 52
25 60 62 96 114 110 63 17 66 19 52 36 -9 11 -8 15 5 20 19 7 22 34 3 34 -7 0
-24 -8 -37 -17z m-487 -453 c3 -13 11 -17 26 -13 12 3 21 1 21 -4 0 -5 19 -15
43 -22 54 -16 90 -36 96 -52 2 -8 -3 -10 -18 -6 -11 3 -19 1 -16 -4 6 -9 -65
-43 -73 -34 -2 2 -14 -2 -26 -10 -11 -8 -30 -15 -41 -15 -12 0 -25 -4 -31 -10
-6 -6 -21 -6 -43 0 -27 7 -32 6 -27 -5 3 -9 0 -12 -10 -8 -7 3 -14 15 -14 27
-1 27 -23 56 -44 56 -9 0 -16 5 -16 11 0 5 4 8 9 5 12 -8 23 23 16 45 -4 12
-1 19 6 19 6 0 17 8 24 17 13 17 61 30 50 13 -10 -15 11 -12 25 4 14 18 36 11
43 -14z m-123 -189 c0 -6 12 -16 27 -23 27 -13 43 -38 24 -38 -6 0 -11 7 -11
15 0 13 -4 14 -21 4 -17 -9 -23 -8 -30 2 -12 19 -11 49 1 49 6 0 10 -4 10 -9z
m320 -31 c0 -5 -5 -10 -11 -10 -5 0 -7 5 -4 10 3 6 8 10 11 10 2 0 4 -4 4 -10z
m-415 -40 c3 -5 -1 -10 -10 -10 -9 0 -13 5 -10 10 3 6 8 10 10 10 2 0 7 -4 10
-10z m162 -6 c-3 -3 -12 -4 -19 -1 -8 3 -5 6 6 6 11 1 17 -2 13 -5z"/>
<path d="M2440 2734 c0 -17 17 -36 24 -26 3 5 -1 15 -9 22 -8 7 -15 9 -15 4z"/>
<path d="M2975 2730 c3 -5 15 -10 26 -10 11 0 17 5 14 10 -3 6 -15 10 -26 10
-11 0 -17 -4 -14 -10z"/>
<path d="M3175 2721 c17 -5 49 -9 73 -10 30 -1 42 -5 42 -16 0 -8 -9 -15 -21
-15 -11 0 -17 -4 -14 -10 3 -5 -3 -10 -15 -10 -12 0 -18 5 -15 10 4 6 -6 10
-22 9 -15 0 -22 -3 -15 -6 6 -2 12 -11 12 -18 0 -7 -6 -15 -12 -18 -7 -2 11
-2 40 1 42 4 52 2 52 -11 0 -10 6 -13 19 -10 11 3 39 -2 63 -10 73 -26 98 -29
98 -12 0 20 15 19 40 -2 27 -24 25 -36 -5 -29 -14 4 -25 2 -25 -4 0 -6 28 -10
65 -10 l65 0 0 85 c0 47 -2 85 -4 85 -11 0 -60 -30 -67 -42 -7 -10 -9 -9 -9 3
0 23 -36 31 -160 35 -58 2 -130 5 -160 8 -39 3 -46 2 -25 -3z m265 -52 c0 -6
-7 -8 -16 -5 -18 7 -57 -11 -49 -23 6 -10 -25 -24 -34 -16 -3 3 0 10 8 14 9 6
7 10 -9 14 -12 3 -19 10 -15 16 8 15 115 14 115 0z m108 -36 c-10 -2 -26 -2
-35 0 -10 3 -2 5 17 5 19 0 27 -2 18 -5z m12 -63 c0 -5 -4 -10 -10 -10 -5 0
-10 5 -10 10 0 6 5 10 10 10 6 0 10 -4 10 -10z"/>
<path d="M2946 2665 c16 -13 17 -16 4 -25 -8 -5 -10 -10 -4 -10 6 0 17 7 25
16 10 13 10 17 -2 25 -25 16 -45 11 -23 -6z"/>
<path d="M3047 2673 c-16 -3 -26 -10 -24 -16 2 -7 11 -11 20 -9 8 1 18 -2 22
-8 8 -13 56 -13 75 1 12 8 9 9 -11 5 -21 -5 -28 -1 -32 14 -3 11 -9 19 -14 19
-4 -1 -21 -4 -36 -6z"/>
<path d="M2411 2633 c-13 -27 -13 -28 8 -9 11 10 18 23 15 27 -8 13 -10 12
-23 -18z"/>
<path d="M2496 2624 c18 -26 28 -27 18 -1 -3 8 -12 18 -20 21 -11 4 -11 0 2
-20z"/>
<path d="M3020 2626 c0 -2 7 -9 15 -16 13 -11 14 -10 9 4 -5 14 -24 23 -24 12z"/>
<path d="M320 2600 c0 -5 5 -10 11 -10 5 0 7 5 4 10 -3 6 -8 10 -11 10 -2 0
-4 -4 -4 -10z"/>
<path d="M3110 2590 c0 -5 4 -10 9 -10 6 0 13 5 16 10 3 6 -1 10 -9 10 -9 0
-16 -4 -16 -10z"/>
<path d="M3225 2580 c-3 -5 1 -10 9 -10 9 0 16 5 16 10 0 6 -4 10 -9 10 -6 0
-13 -4 -16 -10z"/>
<path d="M3308 2573 c6 -2 18 -2 25 0 6 3 1 5 -13 5 -14 0 -19 -2 -12 -5z"/>
<path d="M2285 2420 c-3 -5 -3 -15 1 -21 6 -11 23 6 24 24 0 10 -18 9 -25 -3z"/>
<path d="M3575 2410 c-3 -5 -1 -10 4 -10 6 0 11 5 11 10 0 6 -2 10 -4 10 -3 0
-8 -4 -11 -10z"/>
<path d="M2760 2399 c0 -5 4 -9 9 -9 5 0 17 -3 27 -7 11 -4 15 -3 11 4 -9 14
-47 24 -47 12z"/>
<path d="M2252 2388 c-7 -7 -12 -16 -12 -20 0 -5 -15 -22 -32 -38 -24 -21 -29
-29 -16 -30 9 0 25 10 35 23 10 13 26 26 36 30 18 7 23 32 9 41 -5 3 -14 0
-20 -6z"/>
<path d="M2674 2385 c26 -19 42 -19 26 0 -7 8 -20 15 -29 15 -13 -1 -13 -3 3
-15z"/>
<path d="M2878 2388 c5 -5 16 -8 23 -6 8 3 3 7 -10 11 -17 4 -21 3 -13 -5z"/>
<path d="M2825 2371 c6 -6 49 -21 95 -32 92 -23 200 -23 346 1 138 23 144 30
23 25 -69 -2 -120 0 -126 6 -5 5 -18 7 -27 3 -14 -5 -15 -9 -5 -15 18 -11 4
-23 -17 -15 -9 3 -14 12 -10 21 3 9 0 15 -9 15 -13 0 -20 -18 -16 -42 2 -12
-17 -10 -24 2 -3 6 -32 10 -64 10 -32 0 -61 3 -65 8 -4 4 -17 8 -29 9 -12 1
-35 5 -52 9 -22 5 -27 3 -20 -5z"/>
<path d="M2735 2350 c10 -11 29 -20 44 -22 18 -2 25 -8 23 -20 -2 -15 5 -18
55 -18 38 0 53 -3 44 -9 -8 -5 -21 -7 -30 -4 -12 3 -12 2 1 -7 13 -8 23 -8 38
0 12 6 34 9 50 5 16 -3 31 -2 35 4 4 7 -5 11 -22 11 -37 0 -114 21 -191 53
-54 22 -61 23 -47 7z"/>
<path d="M3523 2327 c-36 -57 -83 -137 -83 -141 0 -11 103 -2 114 10 12 11 15
11 20 -1 14 -38 24 -7 25 78 1 92 1 93 -24 95 -19 1 -31 -7 -52 -41z"/>
<path d="M3451 2341 c-14 -9 -238 -45 -353 -57 -32 -3 -58 -10 -58 -15 0 -5
-8 -9 -17 -9 -15 0 -15 -2 -4 -9 11 -7 4 -11 -25 -14 l-39 -4 40 -1 c22 -1 58
7 80 16 26 12 49 16 65 11 20 -6 21 -7 5 -8 -11 -1 -25 -5 -32 -9 -6 -4 26 -7
70 -6 105 0 157 -6 154 -19 -1 -5 11 -13 26 -18 26 -7 31 -3 77 63 28 39 50
75 50 80 0 11 -21 10 -39 -1z m-71 -90 c0 -5 -40 -9 -90 -8 -49 1 -84 5 -77 9
17 11 167 10 167 -1z"/>
<path d="M2770 2270 c0 -5 7 -10 15 -10 8 0 15 5 15 10 0 6 -7 10 -15 10 -8 0
-15 -4 -15 -10z"/>
<path d="M936 2255 c-3 -8 -1 -15 4 -15 6 0 10 7 10 15 0 8 -2 15 -4 15 -2 0
-6 -7 -10 -15z"/>
<path d="M2940 2260 c-13 -8 -12 -10 3 -10 9 0 17 5 17 10 0 12 -1 12 -20 0z"/>
<path d="M660 2240 c-13 -8 -12 -10 3 -10 9 0 17 5 17 10 0 12 -1 12 -20 0z"/>
<path d="M890 2123 c-19 -14 -47 -18 -114 -20 -103 -2 -156 -10 -156 -24 0 -6
21 -8 58 -4 79 9 181 -9 199 -35 8 -11 17 -20 21 -20 13 0 32 79 24 99 -7 20
-8 20 -32 4z"/>
<path d="M1150 2083 c-81 -13 -119 -43 -160 -122 -15 -30 -17 -45 -9 -86 5
-27 18 -58 28 -69 21 -22 22 -68 6 -150 -6 -31 -5 -37 5 -31 10 6 12 2 7 -16
-4 -13 -7 -27 -7 -31 0 -5 -7 -8 -15 -8 -8 0 -15 -6 -15 -14 0 -17 37 -28 44
-12 2 6 5 5 5 -4 1 -19 49 -41 91 -42 16 -1 30 -5 30 -10 0 -5 5 -6 10 -3 6 3
10 0 10 -8 0 -10 13 -16 40 -19 53 -5 115 25 149 72 16 22 32 35 41 32 13 -4
13 -3 2 11 -12 14 -9 18 17 32 17 8 31 19 31 23 0 5 15 16 33 25 l32 17 -29
-3 c-24 -2 -29 2 -32 23 -5 29 -25 72 -39 82 -6 5 -2 8 8 8 9 0 17 4 17 9 0 5
-9 7 -20 4 -32 -8 -53 4 -42 24 7 11 6 23 -2 35 -9 16 -8 22 6 32 10 7 15 16
11 19 -3 4 -8 19 -9 34 -6 57 -15 70 -70 111 -58 43 -89 49 -174 35z m-113
-425 c-3 -8 -6 -5 -6 6 -1 11 2 17 5 13 3 -3 4 -12 1 -19z"/>
<path d="M2168 2083 c6 -2 18 -2 25 0 6 3 1 5 -13 5 -14 0 -19 -2 -12 -5z"/>
<path d="M2116 2037 c-33 -43 -45 -97 -22 -97 9 0 16 -4 16 -10 0 -5 -5 -10
-11 -10 -5 0 -7 -5 -4 -10 4 -6 11 -8 16 -5 5 4 9 1 9 -4 0 -6 -5 -11 -10 -11
-6 0 -4 -13 5 -30 9 -17 13 -35 10 -40 -3 -5 -1 -12 5 -15 8 -5 8 -11 1 -19
-6 -7 -8 -16 -4 -20 4 -3 -2 -13 -13 -20 -18 -14 -18 -15 9 -21 18 -5 25 -11
19 -17 -5 -5 -7 -19 -4 -30 3 -15 10 -18 28 -14 13 4 24 2 24 -3 0 -5 -11 -12
-25 -15 -32 -8 -32 -24 -1 -32 l25 -6 -27 -23 c-15 -13 -25 -25 -22 -27 3 -2
18 -14 34 -26 22 -17 24 -22 11 -22 -14 0 -15 -3 -6 -14 18 -21 -21 -40 -65
-31 -27 5 -34 3 -34 -10 0 -10 10 -15 30 -15 17 0 30 -4 30 -8 0 -22 -27 -62
-45 -65 -14 -3 -10 -5 10 -7 30 -2 30 -2 5 -10 -14 -4 -40 -8 -57 -9 -27 -1
-33 3 -33 20 0 15 -5 20 -22 17 -13 -2 -23 -8 -23 -15 0 -6 -3 -15 -7 -19 -13
-12 -9 -52 5 -58 10 -5 10 -7 0 -12 -7 -3 -13 -9 -13 -14 0 -13 48 -18 59 -7
8 8 11 6 11 -6 0 -10 8 -17 20 -17 11 0 20 6 20 13 0 17 43 55 77 68 29 11 79
-13 67 -33 -5 -7 0 -9 14 -6 21 6 21 5 6 -24 -13 -25 -14 -32 -2 -39 10 -7 8
-9 -7 -9 -24 -1 -58 -24 -48 -33 3 -4 15 -7 27 -7 18 0 16 -4 -12 -33 -25 -26
-29 -36 -20 -45 16 -16 8 -15 -28 2 -41 19 -84 28 -84 17 0 -5 6 -12 13 -14 6
-3 3 -6 -9 -6 -11 -1 -29 6 -40 14 -10 8 -39 15 -64 16 -25 1 -35 4 -24 6 12
2 24 13 27 24 4 16 0 19 -28 19 -19 0 -37 -4 -40 -10 -5 -8 19 -56 35 -70 4
-3 9 -13 13 -22 4 -13 1 -18 -11 -19 -13 0 -12 -2 4 -9 43 -17 39 -32 -7 -25
-55 7 -71 -3 -71 -48 0 -29 -4 -36 -23 -41 -13 -3 -30 -3 -39 0 -10 4 -19 -3
-27 -20 -12 -25 -41 -42 -57 -32 -4 2 -14 1 -22 -5 -11 -6 -6 -9 17 -9 17 0
35 -5 38 -10 6 -10 -6 -14 -37 -11 -21 2 -34 -19 -18 -29 9 -5 9 -9 1 -14 -6
-4 -11 -2 -11 3 0 6 -18 11 -40 11 -29 0 -40 -4 -40 -15 0 -18 -37 -20 -42 -3
-3 9 -15 9 -50 0 -26 -7 -66 -13 -90 -13 -24 -1 11 -8 77 -15 126 -15 182 -19
383 -29 68 -3 134 -10 148 -15 44 -17 166 -23 205 -10 46 15 168 1 260 -31 49
-17 66 -19 81 -10 25 16 60 14 88 -6 17 -12 50 -17 126 -20 56 -1 108 -4 115
-6 59 -17 110 -28 144 -33 21 -3 43 -8 47 -10 4 -3 12 -2 18 1 17 11 -26 79
-59 93 -30 13 -132 19 -150 8 -4 -3 -30 2 -56 11 -35 12 -44 18 -33 24 27 15
233 26 304 17 38 -5 74 -9 79 -8 6 1 46 3 90 5 44 2 89 7 100 12 11 4 64 8
118 7 l97 0 0 98 0 98 -52 0 c-38 0 -49 3 -38 10 12 8 10 10 -8 10 -18 0 -22
4 -17 19 5 15 -3 22 -41 35 -58 19 -52 20 -57 -1 -3 -10 -6 9 -7 42 -2 58 0
128 4 132 1 1 21 -3 45 -8 29 -6 47 -6 55 0 7 6 16 7 22 2 14 -14 94 -24 94
-13 0 6 -10 13 -22 15 l-23 4 23 8 c27 9 29 42 5 61 -17 13 -17 13 0 14 25 0
21 25 -8 38 -13 6 -66 19 -117 27 -51 9 -94 18 -97 20 -2 2 -6 24 -8 47 -4 32
-1 47 10 57 9 7 13 19 10 27 -5 13 8 15 83 14 49 -1 100 2 113 6 17 5 22 4 17
-4 -4 -7 -2 -12 3 -12 7 0 11 25 11 63 l0 62 -37 13 c-72 25 -138 42 -163 42
-37 1 -66 26 -51 44 9 11 8 15 -3 19 -9 4 -12 14 -9 26 3 12 1 21 -6 21 -6 0
-11 7 -11 15 0 7 -7 18 -16 23 -45 25 67 32 206 13 42 -5 79 -6 84 -1 15 15
-4 30 -39 30 -19 0 -37 5 -40 10 -6 10 20 15 63 11 27 -2 27 4 2 63 -24 53
-37 58 -46 19 -8 -29 -34 -63 -34 -44 0 6 -17 11 -37 11 -21 0 -45 4 -53 10
-23 15 12 23 65 16 37 -6 45 -4 45 8 0 13 -14 16 -77 17 -47 0 -70 3 -58 8 16
7 14 9 -14 14 -19 4 -37 7 -42 7 -5 0 -32 -35 -60 -77 -29 -43 -64 -88 -77
-100 l-25 -21 34 -7 c27 -5 34 -11 35 -31 1 -13 -2 -21 -8 -18 -11 7 -39 -27
-32 -38 3 -5 14 -8 26 -8 17 0 18 -3 8 -15 -6 -8 -9 -19 -5 -25 7 -11 -11 -45
-40 -74 -9 -9 -12 -16 -6 -16 6 0 11 -5 11 -12 0 -9 -3 -9 -12 0 -16 16 -28
15 -28 0 0 -7 11 -21 24 -30 21 -15 26 -16 36 -3 17 21 32 8 19 -16 -13 -25 4
-50 29 -43 14 5 14 4 -1 -6 -10 -6 -32 -12 -50 -12 -40 -1 -67 -14 -67 -34 0
-14 2 -14 16 0 18 18 34 21 34 6 0 -5 -4 -10 -10 -10 -5 0 -10 -4 -10 -10 0
-14 71 -24 89 -13 26 16 24 33 -4 33 -14 0 -24 4 -21 9 10 15 48 -1 54 -22 5
-19 5 -20 19 -1 12 16 15 17 23 4 12 -19 13 -87 1 -95 -6 -3 -14 3 -20 12 -17
31 -24 6 -12 -43 7 -25 9 -49 6 -52 -12 -12 -19 12 -21 71 -3 84 -3 84 -15 64
-6 -10 -8 -33 -5 -52 16 -81 18 -138 5 -145 -7 -5 -9 -16 -5 -26 6 -16 7 -16
21 2 7 10 12 30 11 44 -2 14 -1 17 1 8 2 -10 11 -18 18 -18 10 0 12 13 8 55
-4 36 -2 55 5 55 16 0 22 -27 22 -105 0 -38 4 -88 10 -110 13 -52 12 -55 -4
-55 -10 0 -16 18 -21 58 -3 32 -5 64 -3 71 2 7 -3 16 -11 18 -11 5 -12 -6 -6
-58 5 -35 8 -81 8 -101 -1 -26 4 -38 13 -38 8 0 14 5 14 11 0 5 5 7 10 4 6 -3
10 -26 10 -50 0 -24 -4 -47 -10 -50 -6 -4 -10 6 -10 24 0 16 -4 32 -8 35 -4 2
-6 -10 -4 -29 2 -18 -1 -36 -7 -39 -6 -4 -11 -2 -11 4 0 6 -12 8 -30 5 l-31
-5 18 27 c10 16 22 32 28 36 6 5 3 7 -7 3 -10 -3 -18 1 -21 12 -3 10 -5 6 -6
-10 -1 -20 -9 -32 -31 -43 -37 -19 -40 -19 -40 5 0 13 -12 28 -30 38 -35 20
-38 32 -10 32 11 0 20 5 20 10 0 6 6 10 14 10 15 0 32 37 22 47 -3 4 2 15 11
26 13 15 15 21 6 24 -7 3 -13 11 -13 18 0 7 -6 15 -12 18 -7 2 1 11 18 20 39
20 52 47 25 54 -15 4 -18 12 -13 48 9 81 -19 96 -51 29 -19 -38 -37 -37 -37 2
0 32 -20 27 -48 -13 -21 -31 -62 -46 -62 -23 0 14 -28 12 -33 -2 -3 -10 -9 -8
-24 5 -18 16 -21 16 -33 2 -11 -14 -17 -12 -47 11 l-34 26 2 -39 c3 -51 6 -54
35 -43 21 8 29 6 45 -12 13 -17 18 -19 19 -8 0 23 50 -39 51 -64 1 -12 1 -24
0 -28 0 -5 4 -8 9 -8 6 0 10 -4 10 -8 0 -5 -12 -7 -27 -6 -80 9 -133 10 -133
5 0 -4 19 -17 43 -29 23 -12 31 -19 18 -16 -16 4 -21 3 -17 -5 4 -6 16 -11 26
-11 10 0 22 -9 25 -20 7 -20 39 -27 50 -11 3 6 17 6 35 -1 l30 -10 -27 -27
c-16 -15 -32 -34 -38 -43 -9 -15 -17 -16 -57 -7 -27 6 -48 14 -48 18 0 12 -53
0 -63 -13 -5 -7 -7 -3 -5 9 2 13 -2 19 -11 17 -7 -1 -30 14 -50 35 -20 21 -42
36 -49 35 -7 -2 -15 3 -17 11 -3 7 -18 12 -35 11 -31 -2 -41 12 -15 22 22 9
19 45 -5 51 -11 3 -20 10 -20 16 0 6 -3 8 -6 5 -3 -4 -1 -16 6 -27 7 -14 8
-27 2 -38 -8 -13 -14 -6 -35 38 -22 48 -30 76 -44 159 -2 14 -6 72 -8 129 -2
57 -7 107 -12 110 -4 3 -9 15 -9 26 -3 53 -23 173 -33 198 -8 19 -17 27 -36
27 -27 0 -32 -9 -13 -28 10 -10 10 -17 1 -31 -10 -15 -9 -20 3 -25 8 -3 18 -4
22 -3 9 3 20 -73 21 -151 1 -47 -3 -64 -14 -68 -8 -4 -12 -11 -8 -18 4 -6 6
-24 4 -40 -2 -23 0 -28 14 -22 11 4 15 2 12 -6 -2 -7 2 -17 9 -23 11 -9 18
-45 15 -86 -2 -32 -43 -30 -93 4 -27 17 -48 36 -48 40 0 4 -8 17 -19 28 -11
12 -21 42 -24 76 -4 40 -11 59 -26 70 -12 8 -21 20 -20 26 0 9 2 9 6 0 6 -16
23 -17 23 -3 0 6 -8 14 -17 17 -31 12 -50 37 -67 86 -19 56 -21 97 -5 97 8 0
8 4 -1 15 -6 8 -12 35 -12 60 0 25 -4 43 -9 39 -5 -3 -9 -1 -9 4 0 6 -13 24
-29 41 -30 32 -42 87 -36 169 2 23 -1 42 -6 42 -4 0 -19 -15 -33 -33z m1159
-257 c3 -6 -1 -7 -9 -4 -18 7 -21 14 -7 14 6 0 13 -4 16 -10z m38 -93 c-3 -18
-10 -41 -14 -52 -6 -16 -8 -14 -8 13 -1 17 -4 32 -9 32 -4 0 -6 19 -4 42 l4
42 19 -23 c13 -16 17 -31 12 -54z m247 -77 c0 -5 -10 -10 -22 -10 -19 0 -20 2
-8 10 19 13 30 13 30 0z m-293 -56 c1 -18 -2 -23 -9 -16 -6 6 -8 18 -5 26 9
22 12 20 14 -10z m-1030 -230 c-3 -3 -12 -4 -19 -1 -8 3 -5 6 6 6 11 1 17 -2
13 -5z m-197 -14 c0 -13 -11 -13 -30 0 -12 8 -11 10 8 10 12 0 22 -4 22 -10z
m1503 -107 c-7 -2 -19 -2 -25 0 -7 3 -2 5 12 5 14 0 19 -2 13 -5z m-404 -27
c23 -24 23 -25 5 -44 -40 -41 -64 -33 -64 22 0 21 17 46 30 46 4 0 17 -11 29
-24z m-1139 -125 c0 -5 -7 -12 -16 -15 -24 -9 -28 -7 -14 9 14 17 30 20 30 6z
m45 -1 c-3 -5 -13 -10 -21 -10 -8 0 -12 5 -9 10 3 6 13 10 21 10 8 0 12 -4 9
-10z m1145 0 c0 -5 -5 -10 -11 -10 -5 0 -7 5 -4 10 3 6 8 10 11 10 2 0 4 -4 4
-10z m-1235 -70 c3 -5 1 -10 -4 -10 -6 0 -11 5 -11 10 0 6 2 10 4 10 3 0 8 -4
11 -10z"/>
<path d="M2960 2041 c0 -5 -12 -12 -26 -15 -25 -7 -26 -8 -8 -20 10 -7 40 -18
66 -26 26 -7 53 -19 60 -28 11 -13 10 -14 -7 -9 -117 34 -180 38 -200 11 -23
-31 -19 -46 14 -42 16 1 36 -4 46 -12 11 -9 37 -14 71 -13 30 1 54 -3 54 -8 0
-5 -15 -9 -32 -9 -22 0 -29 -3 -20 -9 21 -13 -16 -19 -148 -25 -63 -2 -89 -1
-58 2 56 7 91 22 51 22 -12 0 -24 6 -26 13 -4 9 -8 9 -14 1 -5 -7 -57 -13
-136 -16 -117 -4 -129 -6 -150 -27 -21 -22 -21 -23 -2 -18 59 17 78 19 72 10
-4 -6 -20 -13 -37 -16 -16 -4 -30 -11 -30 -16 0 -13 133 -18 187 -8 25 5 49 4
60 -1 13 -7 24 -6 38 4 22 16 155 20 155 4 0 -5 -5 -10 -11 -10 -5 0 -7 -4 -4
-10 11 -17 35 -11 35 9 0 26 19 31 111 31 77 0 80 1 91 28 7 15 17 34 24 42
19 22 85 142 81 146 -9 9 -233 21 -241 13 -6 -5 2 -9 20 -10 44 -1 65 -11 55
-28 -6 -10 -17 -11 -37 -5 -16 4 -40 8 -53 8 -23 1 -44 26 -21 26 6 0 8 5 5
10 -8 12 -35 13 -35 1z m193 -28 c-7 -2 -19 -2 -25 0 -7 3 -2 5 12 5 14 0 19
-2 13 -5z m17 -23 c0 -5 -6 -10 -14 -10 -8 0 -18 5 -21 10 -3 6 3 10 14 10 12
0 21 -4 21 -10z m-276 -61 c-30 -12 -37 -10 -24 5 6 8 19 12 27 9 14 -6 14 -8
-3 -14z m86 1 c24 -8 24 -8 -7 -9 -17 -1 -35 4 -38 9 -7 11 9 11 45 0z m167
-66 c-3 -3 -12 -4 -19 -1 -8 3 -5 6 6 6 11 1 17 -2 13 -5z m-480 -40 c-3 -3
-12 -4 -19 -1 -8 3 -5 6 6 6 11 1 17 -2 13 -5z"/>
<path d="M2726 2023 c5 -5 12 -12 16 -18 4 -6 8 -2 8 8 0 9 -7 17 -17 17 -9 0
-12 -3 -7 -7z"/>
<path d="M2800 2001 c0 -17 30 -25 43 -12 8 8 8 11 0 11 -6 0 -18 3 -27 6 -9
3 -16 1 -16 -5z"/>
<path d="M2866 1867 c-16 -12 -11 -14 40 -15 54 -1 57 0 40 13 -25 19 -57 19
-80 2z"/>
<path d="M2471 1784 c0 -11 3 -14 6 -6 3 7 2 16 -1 19 -3 4 -6 -2 -5 -13z"/>
<path d="M2853 1779 c-45 -13 -41 -18 12 -16 28 1 45 7 45 15 0 14 -12 14 -57
1z"/>
<path d="M3023 1783 c15 -2 27 -8 27 -13 0 -4 -10 -6 -22 -3 -22 6 -22 5 3
-15 20 -16 25 -28 21 -47 -2 -14 -8 -28 -13 -31 -5 -2 -6 -18 -2 -34 4 -22 2
-30 -8 -31 -8 0 -5 -4 6 -9 18 -8 17 -9 -8 -9 -16 -1 -26 -5 -22 -11 4 -6 -6
-11 -22 -11 l-28 -1 30 -8 c50 -13 65 -11 66 8 0 10 3 12 6 5 8 -22 29 -15 57
19 32 39 34 30 4 -18 -18 -27 -28 -34 -46 -31 -14 3 -26 -1 -29 -9 -4 -11 -9
-12 -18 -4 -15 12 -155 2 -155 -12 0 -5 -4 -7 -9 -4 -5 4 -12 0 -14 -6 -4 -9
-6 -9 -6 -1 -1 6 6 18 14 27 17 17 19 26 5 26 -6 0 -20 -15 -31 -32 l-21 -33
4 31 c3 23 1 31 -9 27 -7 -3 -13 -19 -13 -37 0 -31 0 -31 53 -32 34 0 56 6 63
15 10 12 13 11 22 -5 10 -18 11 -18 17 -1 7 16 35 25 35 10 0 -5 30 -9 68 -9
37 -1 54 1 39 3 -23 4 -26 7 -16 19 9 12 15 12 27 2 9 -7 13 -8 10 -3 -4 6 -3
17 3 25 6 11 9 8 9 -12 0 -18 5 -28 15 -28 19 0 21 56 3 63 -9 3 -4 14 15 31
26 26 27 28 10 50 -19 25 -33 25 -33 1 0 -23 -41 -4 -51 24 -6 14 -8 38 -5 52
10 50 -2 69 -43 68 -30 -2 -31 -3 -8 -6z m70 -200 c-3 -7 -9 -13 -13 -13 -4 0
-10 6 -13 13 -3 7 3 13 13 13 10 0 16 -6 13 -13z"/>
<path d="M2695 1760 c4 -6 11 -8 16 -5 14 9 11 15 -7 15 -8 0 -12 -5 -9 -10z"/>
<path d="M3143 1763 c-7 -3 -13 -12 -13 -21 0 -15 -2 -15 -11 -2 -9 12 -10 12
-7 1 7 -23 26 -24 33 -1 3 11 11 18 16 15 5 -4 16 -2 25 3 14 8 13 9 -7 9 -13
0 -30 -2 -36 -4z"/>
<path d="M3152 1718 c-13 -13 -4 -38 14 -38 15 0 19 35 6 44 -5 3 -14 0 -20
-6z"/>
<path d="M1516 1704 c-8 -22 -8 -24 7 -24 8 0 22 9 32 20 18 20 17 20 -7 20
-14 0 -29 -7 -32 -16z"/>
<path d="M2885 1704 c-11 -3 -30 -7 -42 -10 -13 -2 -23 -11 -23 -19 0 -12 15
-15 70 -15 39 0 70 -4 70 -8 0 -14 47 -35 59 -27 6 3 8 12 4 18 -5 7 -8 21 -8
31 0 11 -8 21 -20 23 -55 9 -92 11 -110 7z"/>
<path d="M2600 1635 c0 -8 5 -15 10 -15 6 0 10 7 10 15 0 8 -4 15 -10 15 -5 0
-10 -7 -10 -15z"/>
<path d="M2540 1615 c0 -5 5 -17 10 -25 5 -8 10 -10 10 -5 0 6 -5 17 -10 25
-5 8 -10 11 -10 5z"/>
<path d="M2840 1590 c8 -5 20 -10 25 -10 6 0 3 5 -5 10 -8 5 -19 10 -25 10 -5
0 -3 -5 5 -10z"/>
<path d="M825 1570 c-12 -19 7 -31 46 -28 47 2 50 12 8 27 -39 14 -46 14 -54
1z"/>
<path d="M2030 1560 c0 -13 5 -18 15 -14 8 4 15 12 15 20 0 8 -7 14 -15 14 -8
0 -15 -9 -15 -20z"/>
<path d="M2100 1550 c0 -5 7 -10 16 -10 8 0 12 5 9 10 -3 6 -10 10 -16 10 -5
0 -9 -4 -9 -10z"/>
<path d="M2627 1540 c3 -11 7 -20 9 -20 2 0 4 9 4 20 0 11 -4 20 -9 20 -5 0
-7 -9 -4 -20z"/>
<path d="M2720 1526 c0 -2 8 -10 18 -17 15 -13 16 -12 3 4 -13 16 -21 21 -21
13z"/>
<path d="M2766 1505 c-9 -26 -7 -32 5 -12 6 10 9 21 6 23 -2 3 -7 -2 -11 -11z"/>
<path d="M2010 1495 c-8 -9 -8 -15 -2 -15 12 0 26 19 19 26 -2 2 -10 -2 -17
-11z"/>
<path d="M2632 1484 c-15 -16 -8 -34 14 -34 15 0 18 18 6 36 -5 9 -11 8 -20
-2z"/>
<path d="M3047 1465 c-4 -8 -2 -17 3 -20 6 -4 10 3 10 14 0 25 -6 27 -13 6z"/>
<path d="M3078 1462 c-4 -12 -2 -24 2 -27 13 -8 18 8 10 29 -6 19 -7 19 -12
-2z"/>
<path d="M3100 1466 c0 -22 17 -28 24 -10 9 22 8 24 -9 24 -8 0 -15 -6 -15
-14z"/>
<path d="M2807 1463 c-4 -3 -7 -11 -7 -17 0 -6 5 -5 12 2 6 6 9 14 7 17 -3 3
-9 2 -12 -2z"/>
<path d="M2944 1459 c-4 -8 -3 -9 5 -5 9 6 10 0 5 -20 -5 -19 -4 -25 5 -20 19
12 12 -30 -10 -58 -15 -19 -18 -31 -11 -38 17 -17 47 8 62 51 8 26 17 38 26
34 9 -3 14 2 14 12 0 12 -5 15 -16 11 -25 -10 -35 3 -23 27 l11 22 -21 -22
c-25 -26 -33 -29 -25 -9 7 18 -12 30 -22 15z"/>
<path d="M3016 1453 c-6 -14 -5 -15 5 -6 7 7 10 15 7 18 -3 3 -9 -2 -12 -12z"/>
<path d="M2015 1450 c-3 -5 1 -10 10 -10 9 0 13 5 10 10 -3 6 -8 10 -10 10 -2
0 -7 -4 -10 -10z"/>
<path d="M2620 1356 c0 -2 7 -9 15 -16 12 -10 15 -10 15 4 0 9 -7 16 -15 16
-8 0 -15 -2 -15 -4z"/>
<path d="M2670 1350 c0 -5 5 -10 10 -10 6 0 10 5 10 10 0 6 -4 10 -10 10 -5 0
-10 -4 -10 -10z"/>
<path d="M2772 1245 c2 -39 7 -54 16 -50 6 2 12 0 12 -5 0 -6 14 -10 30 -10
30 0 42 21 20 35 -5 3 -10 14 -10 24 0 20 -40 61 -58 61 -9 0 -12 -17 -10 -55z"/>
<path d="M2168 1263 c7 -3 16 -2 19 1 4 3 -2 6 -13 5 -11 0 -14 -3 -6 -6z"/>
<path d="M436 1251 c-4 -6 -12 -8 -19 -5 -7 2 -21 -2 -32 -10 -19 -14 -16 -15
33 -16 53 0 63 8 38 29 -9 8 -16 8 -20 2z"/>
<path d="M2653 1233 c-18 -7 -16 -43 2 -43 9 0 15 9 15 25 0 14 -1 25 -2 24
-2 0 -9 -3 -15 -6z"/>
<path d="M2705 1189 c-4 -6 -4 -13 -1 -16 8 -8 36 5 36 17 0 13 -27 13 -35 -1z"/>
<path d="M480 1180 c0 -5 5 -10 11 -10 5 0 7 5 4 10 -3 6 -8 10 -11 10 -2 0
-4 -4 -4 -10z"/>
<path d="M498 1152 c-19 -4 -25 -22 -8 -22 17 0 11 -28 -7 -34 -47 -15 -244
-46 -293 -46 -30 0 -50 -4 -43 -8 6 -4 -15 -7 -47 -7 -74 0 -100 -22 -100 -87
l0 -44 68 4 c39 2 95 -3 135 -12 41 -10 113 -16 179 -16 79 0 117 -4 136 -15
15 -8 63 -29 107 -46 65 -26 99 -33 183 -37 86 -4 102 -2 102 10 0 9 -7 21
-15 28 -8 7 -15 25 -15 40 0 19 -7 30 -25 38 -21 10 -24 16 -19 38 7 26 6 26
-18 10 -28 -18 -39 -12 -57 36 -8 21 -20 29 -66 39 -30 7 -60 18 -66 26 -6 7
-17 13 -25 13 -7 0 -20 15 -29 34 -19 39 -52 64 -77 58z"/>
<path d="M3272 1090 c0 -17 4 -28 9 -25 11 8 12 55 1 55 -5 0 -9 -14 -10 -30z"/>
<path d="M3295 1050 c-3 -5 -1 -10 4 -10 6 0 11 5 11 10 0 6 -2 10 -4 10 -3 0
-8 -4 -11 -10z"/>
<path d="M968 783 c7 -3 16 -2 19 1 4 3 -2 6 -13 5 -11 0 -14 -3 -6 -6z"/>
<path d="M1191 764 c7 -8 6 -14 -3 -17 -9 -4 -7 -6 4 -6 10 -1 16 6 15 17 0
10 -7 19 -14 19 -9 0 -10 -4 -2 -13z"/>
<path d="M1235 770 c-8 -13 15 -13 35 0 12 8 11 10 -7 10 -12 0 -25 -4 -28
-10z"/>
<path d="M1120 760 c0 -6 7 -10 15 -10 8 0 15 2 15 4 0 2 -7 6 -15 10 -8 3
-15 1 -15 -4z"/>
<path d="M3138 710 c13 -11 22 -22 22 -26 -2 -14 76 -34 135 -34 34 0 72 7 89
15 15 8 29 15 31 15 9 0 47 -41 42 -46 -3 -4 -13 1 -22 10 -19 18 -41 21 -50
6 -3 -5 3 -10 14 -10 12 0 21 -4 21 -9 0 -5 10 -13 23 -17 12 -4 25 -11 28
-17 11 -16 40 0 33 18 -7 17 4 19 26 5 10 -6 11 -10 3 -10 -7 0 -13 -7 -13
-15 0 -11 11 -15 40 -15 l40 0 0 53 c0 53 0 54 -32 54 -94 3 -369 24 -408 32
-45 9 -45 9 -22 -9z"/>
<path d="M1655 700 c-3 -5 1 -10 9 -10 9 0 16 -5 16 -11 0 -6 -6 -9 -14 -6 -8
3 -27 2 -43 -3 -27 -8 -26 -8 12 -9 22 -1 53 -8 69 -16 15 -8 36 -15 45 -14
10 0 11 2 4 6 -7 2 -13 10 -13 17 0 28 -72 67 -85 46z"/>
<path d="M1840 660 c0 -5 6 -10 14 -10 8 0 18 5 21 10 3 6 -3 10 -14 10 -12 0
-21 -4 -21 -10z"/>
<path d="M1913 652 c-6 -4 11 -7 38 -8 27 0 49 3 49 8 0 10 -71 10 -87 0z"/>
<path d="M3305 626 l-30 -13 53 -11 c29 -7 62 -12 74 -12 17 0 18 2 8 15 -7 8
-21 15 -31 15 -11 0 -19 5 -19 10 0 13 -18 12 -55 -4z"/>
<path d="M2297 593 c3 -21 10 -39 15 -41 4 -2 8 -10 8 -18 0 -8 7 -14 16 -14
9 0 18 -9 21 -20 4 -14 14 -20 34 -20 16 0 29 -5 29 -10 0 -6 -11 -8 -25 -4
-35 9 -31 -9 4 -23 24 -8 32 -8 45 5 14 14 16 13 25 -10 12 -32 50 -43 66 -21
12 16 15 15 46 0 19 -9 30 -17 24 -17 -11 0 28 -20 87 -44 34 -13 38 -13 54 5
16 18 16 19 -1 25 -17 7 -17 8 1 21 18 13 18 14 -4 20 -14 3 -21 11 -18 19 13
34 -41 78 -81 68 -12 -3 -32 1 -46 10 -18 13 -31 14 -50 7 -19 -8 -28 -6 -38
5 -6 8 -37 22 -68 30 -67 20 -121 45 -121 56 0 4 -6 8 -14 8 -11 0 -13 -9 -9
-37z m103 -63 c0 -5 -4 -10 -10 -10 -5 0 -10 5 -10 10 0 6 5 10 10 10 6 0 10
-4 10 -10z m50 -20 c8 -5 12 -12 9 -15 -8 -8 -39 5 -39 16 0 11 11 11 30 -1z
m112 -35 c0 -5 -5 -11 -11 -13 -6 -2 -11 4 -11 13 0 9 5 15 11 13 6 -2 11 -8
11 -13z"/>
<path d="M1751 611 c-8 -5 -9 -11 -3 -15 5 -3 12 1 16 9 6 17 6 18 -13 6z"/>
<path d="M2158 553 c7 -3 16 -2 19 1 4 3 -2 6 -13 5 -11 0 -14 -3 -6 -6z"/>
<path d="M2791 394 c-17 -20 -12 -24 33 -26 48 -2 54 7 17 26 -36 19 -33 19
-50 0z"/>
<path d="M2840 349 c-25 -3 -36 -7 -25 -7 11 -1 30 -9 42 -17 18 -13 22 -13
34 1 18 22 0 31 -51 23z"/>
<path d="M2930 344 c0 -9 7 -14 17 -12 24 4 27 23 3 25 -12 1 -20 -4 -20 -13z"/>
<path d="M3528 353 c6 -2 18 -2 25 0 6 3 1 5 -13 5 -14 0 -19 -2 -12 -5z"/>
<path d="M3130 290 c19 -13 30 -13 30 0 0 6 -10 10 -22 10 -19 0 -20 -2 -8
-10z"/>
<path d="M2660 178 c0 -14 124 -138 138 -138 18 0 25 -22 11 -31 -21 -13 7
-12 32 1 13 7 19 7 19 0 0 -6 45 -10 122 -10 l122 0 -34 29 c-91 77 -235 136
-267 109 -10 -8 -13 -7 -13 3 0 8 -24 21 -58 32 -67 20 -72 21 -72 5z m140
-93 c0 -8 -4 -15 -10 -15 -5 0 -7 7 -4 15 4 8 8 15 10 15 2 0 4 -7 4 -15z"/>
</g>
</svg>
